<?xml version="1.0" encoding="utf-8"?>
<!-- Generator: Adobe Illustrator 26.5.0, SVG Export Plug-In . SVG Version: 6.00 Build 0)  -->
<svg version="1.1" id="Layer_1" xmlns="http://www.w3.org/2000/svg" xmlns:xlink="http://www.w3.org/1999/xlink" x="0px" y="0px"
	 viewBox="0 0 1106.82 1257.36" style="enable-background:new 0 0 1106.82 1257.36;" xml:space="preserve">
<g>
	<path d="M550.28,957.11c-5.64-1.12-10.52-3.82-15.29-6.92c-17.63-11.42-35.3-22.78-53.02-34.07
		c-84.68-53.99-170.37-106.34-257.05-157.06c-2.41-1.41-4.61-2.94-5.61-5.71c-0.1-0.27-0.49-0.43-0.74-0.64c0-6.49,0-12.99,0-19.48
		c0.2-2.18,0.54-4.36,0.57-6.54c0.24-14.52,0.4-29.04,0.61-43.56c0.4-26.91,0.83-53.81,1.22-80.72c0.27-18.88,0.47-37.76,0.77-56.64
		c0.26-16.31,0.65-32.63,0.92-48.94c0.07-4.31,1.75-7.39,5.98-8.83c17.39-5.94,33.81-14.23,50.78-21.19
		c14.05-5.77,28.04-11.7,42.06-17.55c0.79-0.33,1.59-0.6,2.69-1.01c1.32,3.98,2.61,7.9,3.94,11.92
		c-22.02,9.28-43.77,18.46-66.08,27.87c1.17,0.77,1.88,1.29,2.63,1.74c11.63,6.83,23.28,13.65,34.91,20.48
		c82.29,48.28,163.63,98.1,244.11,149.32c0.79,0.5,1.58,1.02,2.34,1.57c2.75,2.01,5.71,2.43,8.86,1.14
		c0.53-0.21,1.14-0.54,1.42-0.99c1.24-2.05,3.15-3.33,5.05-4.64c40.02-27.58,79.95-55.29,120.09-82.69
		c47.41-32.36,95.28-64.03,143.35-95.4c2.55-1.67,5.05-3.41,8.01-5.41c-22.46-8.67-44.58-16.81-66.9-25.06
		c1.13-4.13,2.21-8.04,3.35-12.18c0.95,0.31,1.74,0.53,2.5,0.82c27.08,10.17,54.15,20.37,81.24,30.51
		c3.51,1.31,7.09,2.46,10.69,3.51c6.55,1.92,8.17,3.82,8.6,10.62c1.25,19.44,2.5,38.87,3.73,58.31c1.21,19.01,2.4,38.02,3.59,57.04
		c1.2,19.01,2.4,38.02,3.59,57.04c1.03,16.54,2.06,33.08,3.06,49.62c0.55,9.04,1.01,18.08,1.54,27.12c0.04,0.75,0.28,1.49,0.42,2.23
		c0,1.54,0,3.08,0,4.61c-0.66,3.18-2.8,5.16-5.46,6.72c-0.15,0.09-0.28,0.19-0.43,0.28c-55.23,36.13-110.16,72.69-164.52,110.12
		c-45.14,31.08-90.01,62.57-135.02,93.85c-2.16,1.5-4.43,2.94-6.83,4c-4.3,1.9-14.12,6.48-18.99,5.51 M557,957.8 M539.96,806.56
		c0.01,0,0.02,0,0.02,0c-0.12-2.05-0.26-4.09-0.34-6.14c-0.59-13.49-1.16-26.97-1.74-40.46c-1.18-27.4-2.36-54.8-3.55-82.2
		c-0.05-1.19-0.18-2.38-0.3-3.57c-0.24-2.32-1.28-4.26-3.02-5.76c-1.09-0.94-2.29-1.78-3.51-2.56
		c-90.59-57.3-182.28-112.8-275.14-166.34c-1.48-0.85-2.92-1.77-4.43-2.57c-4.57-2.43-10.06,0.62-10.13,5.65
		c-0.39,27.59-0.77,55.19-1.13,82.78c-0.23,17.6-0.41,35.2-0.61,52.8c-0.28,25.72-0.53,51.43-0.85,77.15
		c-0.11,8.8-0.38,17.59-0.58,26.39c-0.06,2.98,0.85,5.58,3.25,7.46c1.2,0.94,2.51,1.77,3.83,2.55
		c78.56,46.2,156.2,93.9,233.03,142.92c22.32,14.24,44.56,28.61,66.85,42.9c1,0.64,1.96,1.95,3.41,1.07
		c1.45-0.87,0.7-2.35,0.65-3.51c-0.76-17.93-1.6-35.85-2.4-53.77C542.17,856.41,541.07,831.49,539.96,806.56z M572.11,802.48
		c0.06,0,0.12,0,0.18,0c0,3.08-0.02,6.15,0,9.23c0.21,33.41,0.42,66.81,0.64,100.22c0.05,7.26,0.13,14.52,0.22,21.78
		c0.01,0.82-0.11,1.67,0.91,2.19c1.01,0.51,1.61-0.07,2.3-0.54c1.97-1.36,3.94-2.71,5.89-4.09
		c93.47-66.21,187.86-131.09,283.62-193.96c1-0.66,1.99-1.33,2.92-2.08c2.51-1.99,3.78-4.59,3.53-7.83c-0.13-1.7-0.38-3.4-0.5-5.1
		c-0.42-6.39-0.81-12.79-1.2-19.18c-0.8-13.05-1.61-26.09-2.4-39.14c-0.57-9.46-1.12-18.93-1.69-28.4
		c-0.79-12.96-1.6-25.92-2.38-38.88c-0.59-9.72-1.12-19.44-1.71-29.16c-0.94-15.52-1.91-31.03-2.86-46.55
		c-0.71-11.68-1.38-23.36-2.17-35.04c-0.08-1.19-0.58-2.58-1.35-3.45c-2.09-2.35-6.3-2.72-8.99-1.05c-0.58,0.36-1.13,0.77-1.7,1.15
		c-32.84,21.56-65.78,42.98-98.52,64.7c-56.66,37.58-112.79,75.95-168.69,114.65c-5.04,3.49-7.13,7.53-7,13.67
		c0.45,20.5,0.47,41,0.6,61.51C571.92,758.9,572,780.69,572.11,802.48z"/>
	<path d="M547.17,591.69 M548.84,592.95c-2.79,0-4.93-1.98-6.44-4.26c-0.61-0.92-5.18-9.94-5.67-10.93
		c-4.47-9.16-10.53-17.14-17.72-24.33c-22.7-22.73-49.52-38.41-80.45-47.07c-12.9-3.61-26.05-5.33-39.44-5.69
		c-10.61-0.29-20.97,0.73-31.02,4.24c-6.17,2.16-11.89,5.15-17.18,9c-1.43,1.04-3,2.01-4.65,2.63c-3.6,1.34-6.42-0.05-7.77-3.66
		c-0.76-2.03-1-4.14-0.63-6.3c1.5-8.84,2.99-17.68,4.52-26.51c3.35-19.43,6.74-38.86,10.06-58.3c3.39-19.86,6.71-39.73,10.05-59.6
		c1.39-8.25,2.81-16.5,4.13-24.76c1.98-12.35,8.74-21.31,19.48-27.35c3.11-1.75,6.52-2.97,9.74-4.52c5.7-2.75,11.86-3.66,18.01-4.52
		c4.39-0.61,8.84-0.8,13.26-1.21c0.57-0.05,1.12-0.26,1.68-0.4c3.93,0,7.86,0,11.79,0c0.47,0.13,0.94,0.37,1.42,0.39
		c14.21,0.41,27.9,3.55,41.36,7.9c20.68,6.68,39.63,16.62,56.76,30.01c2.5,1.95,4.84,4.01,6.27,7.06c0.53-0.43,0.87-0.68,1.18-0.96
		c18.49-16.95,40.09-28.25,64.1-35.14c14.1-4.05,28.49-6.34,43.17-6.6c8.48-0.15,16.86,0.84,25.22,2.23
		c7.5,1.25,14.45,3.97,21.13,7.35c11.25,5.68,18.27,14.65,21.02,27.14c11.43,51.93,23.03,103.83,34.56,155.74
		c0.48,2.17,0.99,4.33,1.44,6.5c0.48,2.28,0.6,4.58-0.09,6.84c-1.13,3.68-3.89,5.23-7.54,4.09c-1.52-0.48-3.01-1.23-4.35-2.12
		c-12.6-8.36-26.56-11.86-41.53-11.57c-43.5,0.85-80.58,17.43-112.59,46.26c-6.29,5.66-12.27,11.66-17.42,18.41
		c-4.26,5.59-7.93,11.54-10.68,18.03c-0.43,1.02-0.93,2.02-1.49,2.97c-2.4,4.03-10.85,10.35-15.28,8.75 M539.42,553.22
		c0.22-0.97,0.49-1.6,0.5-2.24c0.04-2.39,0.07-4.78-0.02-7.17c-0.43-11.18-0.92-22.36-1.35-33.55c-0.58-15.11-1.14-30.22-1.7-45.33
		c-0.81-22.03-1.63-44.05-2.38-66.08c-0.43-12.64-0.71-25.28-1.11-37.91c-0.21-6.79-2.74-12.41-8.44-16.43
		c-3.98-2.81-7.73-5.94-11.79-8.62c-3.91-2.58-7.91-5.12-12.16-7.06c-21.21-9.7-43.44-15.11-66.83-15.78
		c-12.4-0.35-24.54,0.54-36.35,4.69c-8.2,2.88-13.59,8.26-16.1,16.55c-0.42,1.39-0.84,2.79-1.08,4.21
		c-2.58,15.06-5.15,30.12-7.67,45.19c-2.83,16.93-5.57,33.87-8.4,50.79c-3.13,18.69-6.32,37.38-9.46,56.07
		c-0.37,2.21-0.58,4.46-0.85,6.64c0.43,0.1,0.52,0.16,0.59,0.13c0.72-0.26,1.44-0.51,2.15-0.8c10.88-4.46,22.14-7.55,33.83-8.85
		c11.98-1.32,23.88-0.3,35.72,1.71c11.68,1.97,22.81,5.8,33.79,10.09c29.39,11.47,55.49,27.84,76.64,51.57
		C537.61,551.79,538.45,552.37,539.42,553.22z M741.86,493.69c-0.39-2.11-0.66-3.87-1.05-5.61c-4.27-19.42-8.61-38.83-12.84-58.26
		c-4.1-18.85-8.05-37.73-12.13-56.58c-2.47-11.43-4.99-22.85-7.59-34.24c-2.12-9.27-7.64-15.62-16.65-18.92
		c-7.44-2.72-15.1-4.44-22.99-4.7c-21.55-0.7-42.58,2.24-62.89,9.67c-10.77,3.94-21.33,8.3-30.46,15.48
		c-3.62,2.85-7.24,5.72-10.84,8.6c-1.96,1.56-3.57,3.44-4.7,5.69c-1.7,3.36-2.25,6.96-2.19,10.68c0.12,6.75,0.27,13.49,0.34,20.24
		c0.19,17.77,0.37,35.53,0.51,53.3c0.2,25.11,0.35,50.23,0.52,75.34c0.08,12.3,0.11,24.6,0.23,36.91c0.02,1.81,0.36,3.61,0.59,5.72
		c0.75-0.51,1.13-0.7,1.42-0.98c0.66-0.66,1.31-1.35,1.91-2.07c7.16-8.64,15.06-16.55,23.68-23.73
		c17.76-14.79,37.74-25.72,59.14-34.26c16.76-6.69,34.09-10.43,52.12-10.7c10.23-0.16,20.25,1.52,30.09,4.2
		C732.58,490.7,737.02,492.2,741.86,493.69z"/>
	<path d="M361.23,529.87c1.31-2.53,3.03-4.55,5.5-6.19c8.14-5.39,17.25-7.72,26.73-8.87c14.19-1.73,28.15,0.16,41.89,3.6
		c25.12,6.28,47.79,17.68,68.12,33.7c5.79,4.56,10.97,9.77,15.52,15.59c0.89,1.14,1.72,2.36,2.31,3.67c0.9,1.95-0.32,4.48-2.39,4.82
		c-2.42,0.4-4.69,0.18-6.42-2.08c-6.01-7.88-13.3-14.43-21.34-20.18c-2.85-2.04-5.79-3.95-8.73-5.84
		c-20.38-13.07-42.71-20.86-66.57-24.41c-5.31-0.79-10.69-1.28-16.06-1.53c-6.38-0.3-12.61,0.87-18.58,3.12
		c-4.06,1.54-8.14,3.16-11.95,5.23C366.27,532.12,363.82,531.91,361.23,529.87z"/>
	<path d="M736.4,525.51c-2.6,2.21-5,2.29-7.95,0.92c-7.29-3.41-14.87-5.98-22.98-6.77c-4.21-0.41-8.37-0.1-12.52,0.39
		c-20.21,2.41-39.52,8.13-57.5,17.56c-18.45,9.68-35.07,21.91-47.64,38.91c-1.68,2.28-3.94,2.59-6.37,2.25
		c-1.96-0.28-3.32-2.73-2.46-4.52c0.95-1.98,2.13-3.9,3.48-5.63c6.77-8.67,14.63-16.27,23.48-22.79
		c19.9-14.64,41.61-25.48,65.89-30.74c9.45-2.05,18.97-3.57,28.7-3.26c10.57,0.34,20.62,2.57,29.94,7.79
		C733.03,521.05,734.92,522.93,736.4,525.51z"/>
	<path d="M534.45,802.32c0.79,15.62,1.59,31.23,2.37,46.85c0.59,11.69,1.14,23.38,1.72,35.07c0.59,11.86,1.2,23.72,1.76,35.58
		c0.07,1.44-0.03,2.91-0.26,4.33c-0.45,2.75-2.22,3.82-4.84,2.78c-1.81-0.72-3.52-1.74-5.17-2.8c-9.92-6.37-19.79-12.81-29.7-19.2
		c-82.27-53.05-165.35-104.79-249.47-154.84c-5.59-3.32-5.68-3.58-5.63-10.22c0.22-24.52,0.41-49.04,0.61-73.57
		c0.2-24.01,0.38-48.02,0.58-72.03c0.16-19.48,0.33-38.96,0.51-58.44c0.07-7.09,0.15-14.18,0.28-21.27c0.1-5.22,2.13-6.61,7.04-4.68
		c2.69,1.06,5.34,2.3,7.84,3.75c64.31,37.4,128.01,75.8,191.16,115.13c20.44,12.73,40.8,25.61,61.18,38.45
		c3.25,2.05,6.43,4.21,9.62,6.35c3.16,2.13,4.51,5.28,4.71,8.95c0.37,6.65,0.67,13.31,1,19.97c0.82,16.47,1.64,32.94,2.45,49.41
		c0.57,11.43,1.15,22.87,1.7,34.3c0.26,5.37,0.47,10.74,0.71,16.11C534.58,802.32,534.51,802.32,534.45,802.32z M531.87,917.53
		c0.22-0.09,0.45-0.19,0.67-0.28c0-1.7,0.06-3.4-0.01-5.09c-0.57-12.89-1.16-25.77-1.76-38.66c-0.54-11.61-1.09-23.21-1.62-34.82
		c-0.81-17.58-1.63-35.16-2.41-52.74c-0.59-13.4-1.11-26.8-1.7-40.2c-0.9-20.4-1.86-40.79-2.74-61.18
		c-0.13-2.95-1.27-5.28-3.52-7.08c-1-0.8-2.07-1.51-3.15-2.19c-70.93-44.9-142.45-88.84-214.79-131.43
		c-14.35-8.45-28.76-16.79-43.14-25.17c-0.85-0.49-1.74-0.92-3-1.58c-0.3,2.18-0.72,3.92-0.75,5.67
		c-0.16,12.04-0.25,24.09-0.35,36.13c-0.18,21.44-0.35,42.89-0.51,64.33c-0.18,25.03-0.33,50.06-0.52,75.09
		c-0.1,12.9-0.24,25.8-0.41,38.69c-0.05,3.5,1.18,6.34,3.99,8.43c0.96,0.71,1.97,1.35,2.99,1.97c6.01,3.59,12.04,7.14,18.05,10.74
		c65.59,39.25,130.41,79.74,194.78,120.95c19.2,12.29,38.35,24.68,57.53,37.01C530.27,916.63,531.08,917.06,531.87,917.53z"/>
	<path d="M577.47,857.98c0-19.31,0.05-38.63-0.01-57.94c-0.11-34.85-0.27-69.71-0.42-104.56c-0.02-5.13,0.02-10.26-0.06-15.38
		c-0.08-4.96,1.93-8.49,6.14-11.3c7.67-5.11,15.02-10.7,22.59-15.97C681,600.39,757.03,549.03,833.83,498.84
		c2.7-1.76,5.62-3.24,8.58-4.54c3.67-1.62,5.74-0.35,6.25,3.63c0.28,2.2,0.35,4.43,0.47,6.65c0.76,13.65,1.48,27.3,2.25,40.95
		c0.93,16.46,1.91,32.92,2.85,49.38c0.59,10.41,1.14,20.82,1.73,31.22c0.77,13.48,1.58,26.95,2.36,40.43
		c0.58,9.98,1.12,19.96,1.71,29.94c0.6,10.15,1.11,20.31,1.93,30.44c0.31,3.81-0.96,6.27-4.09,8.34
		c-19.64,13.05-39.24,26.14-58.78,39.33c-70.59,47.67-140.55,96.23-209.97,145.59c-1.67,1.18-3.38,2.34-5.19,3.27
		c-3.25,1.67-5.25,0.63-5.88-2.96c-0.26-1.51-0.38-3.06-0.39-4.59c-0.03-19.31-0.02-38.63-0.02-57.94
		C577.6,857.98,577.53,857.98,577.47,857.98z M841.52,501.79c-3.58,2.27-6.62,4.15-9.61,6.1
		c-76.35,49.93-151.98,100.95-226.88,153.04c-5.54,3.85-11.08,7.7-16.63,11.55c-3.33,2.31-5.26,5.31-4.81,9.53
		c0.08,0.76,0.06,1.54,0.07,2.31c0.12,19.31,0.23,38.62,0.36,57.93c0.18,25.72,0.41,51.43,0.57,77.15
		c0.15,24.69,0.23,49.39,0.35,74.08c0.03,5.47,0.11,10.94,0.17,16.4c0.02,1.49,0.04,2.98,0.74,4.34c0.41-0.13,0.59-0.14,0.72-0.23
		c2.33-1.58,4.69-3.14,6.98-4.77c84.29-59.84,169.17-118.81,255.34-175.91c0.85-0.56,1.69-1.17,2.46-1.84
		c2.82-2.43,3.85-5.54,3.39-9.19c-0.14-1.1-0.33-2.2-0.4-3.3c-0.4-6.65-0.78-13.3-1.14-19.96c-0.82-15.1-1.62-30.2-2.45-45.3
		c-0.53-9.72-1.1-19.45-1.67-29.17c-0.79-13.56-1.61-27.12-2.39-40.68c-0.59-10.41-1.13-20.82-1.7-31.22
		c-0.81-14.76-1.61-29.52-2.48-44.27C842.42,506.35,841.92,504.35,841.52,501.79z"/>
</g>
</svg>
